Coordinates
version=1
nRows=10
nColumns=60
inDegrees=yes

Units are S.I. units (second, meters, Newtons, ...)
If the header above contains a line with 'inDegrees', this indicates whether rotational values are in degrees (yes) or radians (no).

endheader
time	pelvis_tilt	pelvis_list	pelvis_rotation	pelvis_tx	pelvis_ty	pelvis_tz	hip_flexion_r	hip_adduction_r	hip_rotation_r	knee_angle_r_beta	knee_angle_r	ankle_angle_r	subtalar_angle_r	mtp_angle_r	hip_flexion_l	hip_adduction_l	hip_rotation_l	knee_angle_l_beta	knee_angle_l	ankle_angle_l	subtalar_angle_l	mtp_angle_l	L5_S1_Flex_Ext	L5_S1_Lat_Bending	L5_S1_axial_rotation	L4_L5_Flex_Ext	L4_L5_Lat_Bending	L4_L5_axial_rotation	L3_L4_Flex_Ext	L3_L4_Lat_Bending	L3_L4_axial_rotation	L2_L3_Flex_Ext	L2_L3_Lat_Bending	L2_L3_axial_rotation	L1_L2_Flex_Ext	L1_L2_Lat_Bending	L1_L2_axial_rotation	L1_T12_Flex_Ext	L1_T12_Lat_Bending	L1_T12_axial_rotation	Abs_r3	Abs_r2	Abs_r1	Abs_t1	Abs_t2	arm_flex_r	arm_add_r	arm_rot_r	elbow_flex_r	pro_sup_r	wrist_flex_r	wrist_dev_r	arm_flex_l	arm_add_l	arm_rot_l	elbow_flex_l	pro_sup_l	wrist_flex_l	wrist_dev_l
      7.40000000	      0.91425296	      6.88617660	     92.10444093	      0.40012293	      0.94143807	      0.30235588	      3.50116481	     -3.60109032	     -0.84389960	      0.24987965	    -14.31704917	      6.13892242	      0.00000000	      0.00000000	      3.95047222	     -6.28080124	     -0.51308272	      0.23855407	    -13.66814168	      7.72631632	      0.00000000	      0.00000000	     -6.65512537	      0.15512660	     -0.26967749	    -12.35923333	      0.20631838	     -0.28653234	    -10.93370548	      0.37717482	     -0.28653234	     -7.60614279	      0.37717482	     -0.23596781	     -6.17994942	      0.31633417	     -0.21911296	     -3.80273864	      0.24029111	     -0.20225812	    -47.53689503	      1.75482314	     -1.49986531	      0.00000000	      0.00000000	     49.08857244	    -26.99183631	     16.87767275	     89.49319050	     71.40573059	    -29.36219487	     61.57228170	     48.48372329	    -27.07832380	     17.67458176	     87.20459275	     65.99923168	    -28.75865173	     56.51032694
      7.41000000	      0.88464780	      7.26411983	     92.11949864	      0.39977148	      0.94184318	      0.30012325	      2.98179752	     -3.63912672	     -0.92475418	      0.25177945	    -14.42589983	      6.36431504	      0.00000000	      0.00000000	      3.40573908	     -6.25378748	     -0.57117529	      0.23923717	    -13.70727992	      7.96989426	      0.00000000	      0.00000000	     -6.65798187	      0.14911785	     -0.28720449	    -12.36453813	      0.19832674	     -0.30515477	    -10.93839841	      0.36256514	     -0.30515477	     -7.60940748	      0.36256514	     -0.25130393	     -6.18260196	      0.30408112	     -0.23335365	     -3.80437084	      0.23098355	     -0.21540337	    -47.55729869	      1.68685092	     -1.59734522	      0.00000000	      0.00000000	     46.92105819	    -26.99873533	     15.90853664	     91.11001454	     72.34570667	    -29.29595066	     61.83035687	     46.00666200	    -26.93126127	     16.30565033	     88.96746840	     67.21154695	    -28.79403195	     56.85167718
      7.42000000	      0.86701199	      7.60336869	     92.13729664	      0.39942951	      0.94218886	      0.29794857	      2.48525784	     -3.66812329	     -1.03507420	      0.25280684	    -14.48476488	      6.58292247	      0.00000000	      0.00000000	      2.86977093	     -6.24084646	     -0.66812502	      0.23834638	    -13.65624141	      8.22355896	      0.00000000	      0.00000000	     -6.65500373	      0.14400109	     -0.30132488	    -12.35900744	      0.19152146	     -0.32015768	    -10.93350564	      0.35012426	     -0.32015768	     -7.60600377	      0.35012426	     -0.26365927	     -6.17983647	      0.29364703	     -0.24482646	     -3.80266913	      0.22305770	     -0.22599366	    -47.53602618	      1.62896918	     -1.67587857	      0.00000000	      0.00000000	     44.78815967	    -27.05667429	     15.06400771	     92.62437926	     73.12218845	    -29.25257915	     61.99848015	     43.62960010	    -26.84027026	     15.19162656	     90.61839444	     68.21477747	    -28.89985378	     57.08448905
      7.43000000	      0.84839923	      8.01360330	     92.15332625	      0.39909033	      0.94268573	      0.29593596	      1.95640756	     -3.69213763	     -1.07423584	      0.25515708	    -14.61942392	      6.73125565	      0.00000000	      0.00000000	      2.29424178	     -6.22871434	     -0.70572767	      0.23873150	    -13.67830728	      8.39014509	      0.00000000	      0.00000000	     -6.66857459	      0.13746953	     -0.32310802	    -12.38420987	      0.18283448	     -0.34330227	    -10.95580119	      0.33424342	     -0.34330227	     -7.62151390	      0.33424342	     -0.28271951	     -6.19243836	      0.28032787	     -0.26252526	     -3.81042352	      0.21294031	     -0.24233101	    -47.63296142	      1.55508286	     -1.79702985	      0.00000000	      0.00000000	     42.74264006	    -26.87234331	     14.07090340	     93.96258408	     74.08210724	    -28.97590911	     62.28308756	     41.23409837	    -26.52476453	     13.77727055	     92.17475899	     69.48916642	    -28.76640162	     57.51157606
      7.44000000	      0.83862221	      8.38451353	     92.18026061	      0.39870917	      0.94311314	      0.29399784	      1.44267231	     -3.71166966	     -1.16523766	      0.25646694	    -14.69447311	      6.88462357	      0.00000000	      0.00000000	      1.74607725	     -6.22352886	     -0.81887515	      0.23829244	    -13.65315101	      8.59537647	      0.00000000	      0.00000000	     -6.65673705	      0.13486274	     -0.33221280	    -12.36222637	      0.17936744	     -0.35297609	    -10.93635329	      0.32790526	     -0.35297609	     -7.60798477	      0.32790526	     -0.29068620	     -6.18144602	      0.27501209	     -0.26992290	     -3.80365955	      0.20890238	     -0.24915960	    -47.54840704	      1.52559425	     -1.84766790	      0.00000000	      0.00000000	     40.83297767	    -27.03201112	     13.65042282	     94.92428016	     74.44150067	    -28.98278582	     61.88473828	     39.15422915	    -26.46901058	     13.23752985	     93.18541828	     69.97500738	    -28.91551492	     57.07958580
      7.45000000	      0.82204931	      8.68066333	     92.19634794	      0.39838909	      0.94344248	      0.29216514	      1.00250671	     -3.74298792	     -1.23980107	      0.25713950	    -14.73300837	      7.05088874	      0.00000000	      0.00000000	      1.25145336	     -6.21218925	     -0.92175680	      0.23655071	    -13.55335726	      8.79045005	      0.00000000	      0.00000000	     -6.65825257	      0.12839198	     -0.34409069	    -12.36504084	      0.17076133	     -0.36559636	    -10.93884314	      0.31217226	     -0.36559636	     -7.60971686	      0.31217226	     -0.30107935	     -6.18285333	      0.26181692	     -0.27957369	     -3.80452552	      0.19887917	     -0.25806802	    -47.55923226	      1.45239573	     -1.91372919	      0.00000000	      0.00000000	     38.84001177	    -27.01480815	     12.89575696	     96.15706601	     75.08119644	    -28.83686080	     61.90349055	     36.97546948	    -26.34293743	     12.34978218	     94.57770770	     70.81617357	    -28.98961941	     57.17801551
      7.46000000	      0.77252055	      8.98980644	     92.22760541	      0.39805965	      0.94376618	      0.29061064	      0.57680753	     -3.79980960	     -1.25160581	      0.25838387	    -14.80430547	      7.17112265	      0.00000000	      0.00000000	      0.77807433	     -6.16528184	     -0.97554968	      0.23558850	    -13.49822685	      8.86133453	      0.00000000	      0.00000000	     -6.67591651	      0.11671034	     -0.37293278	    -12.39784456	      0.15522475	     -0.39624108	    -10.96786324	      0.28376952	     -0.39624108	     -7.62990498	      0.28376952	     -0.32631618	     -6.19925608	      0.23799572	     -0.30300788	     -3.81461870	      0.18078431	     -0.27969958	    -47.68540407	      1.32025069	     -2.07414024	      0.00000000	      0.00000000	     36.94724975	    -26.57226971	     11.74372728	     97.35170570	     76.12653945	    -28.30990561	     62.70495243	     34.78836431	    -25.90794789	     10.89237880	     96.09339345	     72.19591518	    -28.71360441	     58.22691945
      7.47000000	      0.74374544	      9.26604867	     92.26410779	      0.39767303	      0.94405475	      0.28911619	      0.17144391	     -3.84309689	     -1.33149541	      0.25884068	    -14.83047825	      7.30845413	      0.00000000	      0.00000000	      0.36171832	     -6.13876758	     -1.07957939	      0.23520946	    -13.47650909	      9.01789517	      0.00000000	      0.00000000	     -6.66418956	      0.11220446	     -0.38297081	    -12.37606643	      0.14923193	     -0.40690649	    -10.94859702	      0.27281391	     -0.40690649	     -7.61650224	      0.27281391	     -0.33509946	     -6.18836642	      0.22880733	     -0.31116379	     -3.80791791	      0.17380470	     -0.28722811	    -47.60163958	      1.26927925	     -2.12996878	      0.00000000	      0.00000000	     35.21243072	    -26.67805752	     11.39923550	     98.09670537	     76.38621121	    -28.27703991	     62.33411482	     32.93964371	    -25.85675380	     10.51643420	     96.89219550	     72.56032909	    -28.83822062	     57.83936805
      7.48000000	      0.67366625	      9.44635320	     92.30826566	      0.39729654	      0.94416696	      0.28785726	     -0.10870996	     -3.92950658	     -1.35380598	      0.25934361	    -14.85929412	      7.46067279	      0.00000000	      0.00000000	      0.05829524	     -6.05832281	     -1.09694296	      0.23452934	    -13.43754150	      9.10816805	      0.00000000	      0.00000000	     -6.66759161	      0.09873517	     -0.40647556	    -12.38238438	      0.13131778	     -0.43188028	    -10.95418626	      0.24006469	     -0.43188028	     -7.62039045	      0.24006469	     -0.35566611	     -6.19152557	      0.20134076	     -0.33026139	     -3.80986185	      0.15294078	     -0.30485667	    -47.62594011	      1.11691200	     -2.26069511	      0.00000000	      0.00000000	     33.39501419	    -26.39973601	     10.48858052	     99.13855635	     77.11545427	    -27.87610810	     62.78379530	     30.99103565	    -25.61157675	      9.58632294	     98.18212169	     73.50739916	    -28.77175837	     58.46275044
      7.49000000	      0.63696608	      9.66991237	     92.35929036	      0.39683645	      0.94436371	      0.28668783	     -0.44481520	     -3.98521997	     -1.46517980	      0.25931058	    -14.85740165	      7.60086312	      0.00000000	      0.00000000	     -0.26200308	     -6.01363594	     -1.17651981	      0.23472960	    -13.44901516	      9.24300553	      0.00000000	      0.00000000	     -6.65854787	      0.09505009	     -0.41938307	    -12.36558924	      0.12641662	     -0.44559451	    -10.93932829	      0.23110479	     -0.44559451	     -7.61005436	      0.23110479	     -0.36696019	     -6.18312755	      0.19382615	     -0.34074874	     -3.80469425	      0.14723259	     -0.31453730	    -47.56134155	      1.07522564	     -2.33248282	      0.00000000	      0.00000000	     31.77556855	    -26.44879913	     10.14725408	     99.75211476	     77.35811782	    -27.79402470	     62.47395040	     29.30245482	    -25.54554517	      9.28198550	     98.84168031	     73.82626300	    -28.86519225	     58.13514890
